PathFileType   4   (X/Y/Z)
DataRate	CameraRate	NumFrames	NumMarkers	Units	OrigDataRate	OrigDataStartFrame	OrigNumFrames
120.0	120.0	5	37	mm	120.0	102	116
Frame#	Time	midhip	hip_r	hip_l	knee_r	knee_l	ankle_r	ankle_l	midasis	asis_r	asis_l	psis_r	psis_l	epicondLat_r	epicondLat_l	epicondMed_r	epicondMed_l	malleolusLat_r	malleolusLat_l	malleolusMedv_r	malleolusMedv_l	neck	subclavicle_r	subclavicle_l	sternalnotch	xyphoidprocess	thighwand_r	thighwand_l	upperleg1_r	upperleg1_l	upperleg2_r	upperleg2_l	shankwand_r	shankwand_l	lowerleg1_r	lowerleg1_l	toe_r	toe_l
 	 	X1	Y1	Z1	X2	Y2	Z2	X3	Y3	Z3	X4	Y4	Z4	X5	Y5	Z5	X6	Y6	Z6	X7	Y7	Z7	X8	Y8	Z8	X9	Y9	Z9	X10	Y10	Z10	X11	Y11	Z11	X12	Y12	Z12	X13	Y13	Z13	X14	Y14	Z14	X15	Y15	Z15	X16	Y16	Z16	X17	Y17	Z17	X18	Y18	Z18	X19	Y19	Z19	X20	Y20	Z20	X21	Y21	Z21	X22	Y22	Z22	X23	Y23	Z23	X24	Y24	Z24	X25	Y25	Z25	X26	Y26	Z26	X27	Y27	Z27	X28	Y28	Z28	X29	Y29	Z29	X30	Y30	Z30	X31	Y31	Z31	X32	Y32	Z32	X33	Y33	Z33	X34	Y34	Z34	X35	Y35	Z35	X36	Y36	Z36	X37	Y37	Z37

	102	0.97500	1497.057	810.262	-260.990	1492.176	793.873	-192.774	1478.979	802.789	-344.066	1430.780	434.022	-218.409	1634.698	436.582	-351.464	1319.042	71.351	-243.391	1696.028	79.379	-347.538	1578.451	869.187	-269.288	1584.848	862.250	-151.101	1572.053	876.124	-387.475	1387.911	935.048	-225.764	1382.510	930.463	-280.008	1434.011	429.359	-160.687	1643.603	441.522	-408.563	1435.141	446.439	-275.422	1643.014	449.584	-289.107	1301.941	74.136	-207.338	1680.991	76.391	-384.484	1334.727	76.805	-275.342	1709.357	91.194	-324.023	1475.227	1372.447	-253.111	1606.669	1313.756	-220.798	1592.771	1310.484	-326.928	1596.583	1309.083	-272.931	1637.268	1240.263	-279.884	1617.100	546.449	-224.654	1635.182	577.494	-494.810	1561.559	606.185	-165.533	1555.466	600.099	-437.838	1531.516	522.157	-171.258	1595.774	524.310	-425.376	1309.759	147.918	-131.856	1765.911	221.575	-346.569	1318.319	156.045	-175.091	1727.454	212.622	-353.980	1409.483	38.896	-207.991	1800.866	74.729	-378.419
	103	0.98333	1506.535	808.655	-261.558	1501.813	792.386	-193.207	1488.967	801.142	-344.538	1436.582	433.560	-218.561	1645.378	435.639	-350.975	1319.800	72.295	-243.675	1719.347	80.103	-347.990	1588.306	867.565	-269.608	1594.437	860.748	-151.274	1582.176	874.381	-387.942	1397.553	933.611	-226.514	1392.248	929.024	-280.781	1439.355	428.975	-160.809	1653.492	440.120	-408.230	1442.346	445.063	-274.885	1650.876	446.636	-289.735	1302.543	75.374	-207.720	1704.441	76.691	-384.952	1335.475	78.728	-275.568	1732.248	92.536	-324.493	1484.907	1370.976	-253.491	1616.606	1312.550	-221.534	1603.052	1308.934	-327.323	1606.360	1307.546	-273.380	1647.579	1238.965	-280.131	1624.122	544.373	-223.661	1643.604	575.002	-495.303	1568.563	605.241	-165.001	1564.410	598.273	-438.021	1538.236	520.844	-170.546	1603.900	521.914	-425.754	1310.978	149.224	-132.171	1783.941	224.728	-346.601	1319.426	158.260	-174.810	1745.806	215.159	-354.338	1409.653	38.854	-207.969	1824.749	78.278	-378.004
	104	0.99167	1516.392	807.278	-261.993	1511.624	790.955	-193.699	1499.216	799.538	-345.077	1442.599	433.116	-218.592	1656.123	434.705	-350.563	1320.615	73.415	-243.808	1741.544	81.065	-348.307	1598.333	866.054	-269.934	1604.126	859.365	-151.456	1592.539	872.742	-388.412	1407.289	932.201	-227.403	1402.116	927.524	-281.656	1444.932	428.647	-160.811	1663.477	438.731	-407.954	1450.216	442.847	-273.599	1659.530	443.571	-290.670	1303.224	76.799	-207.946	1726.798	77.267	-385.295	1336.729	80.490	-275.447	1754.325	94.107	-324.905	1494.748	1369.518	-254.140	1626.324	1311.127	-222.035	1613.082	1307.884	-327.989	1616.163	1306.047	-273.907	1657.536	1237.784	-280.863	1631.337	542.374	-222.646	1652.258	572.588	-495.903	1575.601	604.021	-164.796	1573.198	595.893	-438.246	1545.644	520.114	-169.596	1612.313	519.430	-426.331	1312.364	150.728	-132.361	1801.200	227.735	-346.507	1320.860	160.046	-174.281	1763.500	217.201	-353.868	1409.849	38.820	-207.841	1847.438	81.856	-377.472
	105	1.00000	1526.986	806.329	-262.017	1521.562	789.589	-194.245	1509.695	797.980	-345.677	1448.866	432.687	-218.495	1666.952	433.791	-350.212	1321.433	74.746	-243.810	1762.477	82.118	-348.472	1608.498	864.651	-270.258	1613.873	858.104	-151.641	1603.122	871.198	-388.875	1417.147	930.833	-228.437	1412.096	925.970	-282.657	1450.794	428.366	-160.688	1673.631	437.391	-407.714	1457.166	441.228	-272.562	1668.820	441.213	-291.458	1303.968	78.432	-208.014	1747.907	77.977	-385.494	1337.913	81.200	-275.299	1775.160	95.830	-324.876	1504.482	1368.104	-254.761	1635.894	1309.178	-222.081	1622.827	1306.518	-328.515	1625.986	1304.629	-274.482	1667.000	1236.050	-281.440	1638.810	540.442	-221.658	1661.281	570.296	-496.559	1582.897	602.506	-164.729	1581.788	593.708	-438.597	1552.581	519.170	-168.812	1621.125	517.068	-426.864	1313.996	152.418	-132.406	1817.652	230.481	-346.301	1322.870	161.505	-174.614	1780.493	218.985	-353.142	1410.089	38.813	-207.640	1868.774	85.283	-376.876
	106	1.00833	1537.784	805.532	-262.301	1531.575	788.300	-194.840	1520.355	796.476	-346.333	1455.433	432.248	-218.282	1677.891	432.913	-349.908	1322.229	76.293	-243.678	1782.007	83.100	-348.481	1618.762	863.348	-270.577	1623.635	856.960	-151.824	1613.890	869.737	-389.330	1427.163	929.510	-229.621	1422.197	924.379	-283.802	1457.005	428.105	-160.451	1684.028	436.139	-407.492	1465.073	439.489	-271.336	1677.372	438.695	-292.608	1304.768	80.276	-207.911	1767.607	78.663	-385.534	1337.067	83.335	-275.912	1794.337	97.370	-324.715	1514.296	1366.705	-255.534	1645.529	1307.764	-222.745	1632.577	1305.013	-329.217	1635.817	1303.308	-275.101	1676.652	1234.560	-282.015	1646.603	538.571	-220.740	1670.809	568.177	-497.203	1590.728	601.960	-164.718	1590.813	592.375	-439.160	1560.083	518.139	-168.035	1630.030	515.003	-427.661	1315.921	154.285	-132.276	1833.275	232.844	-346.012	1323.970	163.836	-174.937	1796.565	220.796	-352.096	1410.387	38.846	-207.394	1888.604	88.354	-376.264
